<svg width="160" height="32" viewBox="0 0 160 32" fill="none" xmlns="http://www.w3.org/2000/svg">
<rect width="32" height="32" rx="8" fill="#c9a96e"/>
<path d="M16 7C12.6863 7 10 9.68629 10 13C10 14.8639 10.8507 16.5307 12.2 17.6447L11.4 22.5H14L15.2 19H16.8L18 22.5H20.6L19.8 17.6447C21.1493 16.5307 22 14.8639 22 13C22 9.68629 19.3137 7 16 7ZM16 9C18.2091 9 20 10.7909 20 13C20 15.2091 18.2091 17 16 17C13.7909 17 12 15.2091 12 13C12 10.7909 13.7909 9 16 9Z" fill="white"/>
<path d="M13.5 19.5C12.5 19.5 11 20 11 22H21C21 20 19.5 19.5 18.5 19.5H13.5Z" fill="white" fill-opacity="0.9"/>
<path d="M16 23C16.5523 23 17 23.4477 17 24C17 24.5523 16.5523 25 16 25C15.4477 25 15 24.5523 15 24C15 23.4477 15.4477 23 16 23Z" fill="white" fill-opacity="0.8"/>
<text x="40" y="23" font-family="system-ui, -apple-system, 'Segoe UI', Roboto, sans-serif" font-size="18" font-weight="700" fill="#101828"><tspan>Civitas</tspan><tspan font-weight="400">Admin</tspan></text>
</svg>